<svg xmlns="http://www.w3.org/2000/svg" version="1.1" xmlns:xlink="http://www.w3.org/1999/xlink" xmlns:svgjs="http://svgjs.dev/svgjs" viewBox="0 0 10.690787308799454 12.175078639913114"><g transform="matrix(1,0,0,1,0.9503332295950404,7.535631773954438)"><rect width="12.175078639913114" height="12.175078639913114" x="-1.6924788951518703" y="-7.535631773954438" fill="#fffef5"></rect><g><path d=" M 4.055302368164061 0.807 L 3.5993023681640612 0.807 L 3.515302368164061 1.0395 L 3.3713023681640615 1.0395 L 3.749302368164061 0 L 3.9068023681640613 0 L 4.283302368164062 1.0395 L 4.139302368164062 1.0395 L 4.055302368164061 0.807 M 4.0163023681640615 0.6960000000000001 L 3.8273023681640614 0.16800000000000004 L 3.6383023681640614 0.6960000000000001 L 4.0163023681640615 0.6960000000000001 M 4.702569213867187 0.24150000000000005 Q 4.7693192138671865 0.20250000000000012 4.865319213867187 0.20250000000000012 L 4.865319213867187 0.3435 L 4.829319213867186 0.3435 Q 4.599819213867186 0.3435 4.599819213867186 0.5925 L 4.599819213867186 1.0395 L 4.463319213867186 1.0395 L 4.463319213867186 0.21750000000000003 L 4.599819213867186 0.21750000000000003 L 4.599819213867186 0.3510000000000001 Q 4.635819213867187 0.2805000000000001 4.702569213867187 0.24150000000000005 M 5.204297973632812 0.33000000000000007 L 5.204297973632812 0.8145000000000001 Q 5.204297973632812 0.8745 5.229797973632812 0.8992500000000001 Q 5.255297973632812 0.924 5.318297973632812 0.924 L 5.418797973632812 0.924 L 5.418797973632812 1.0395 L 5.295797973632812 1.0395 Q 5.181797973632812 1.0395 5.124797973632812 0.9870000000000001 Q 5.067797973632812 0.9345000000000001 5.067797973632812 0.8145000000000001 L 5.067797973632812 0.33000000000000007 L 4.961297973632812 0.33000000000000007 L 4.961297973632812 0.21750000000000003 L 5.067797973632812 0.21750000000000003 L 5.067797973632812 0.010500000000000176 L 5.204297973632812 0.010500000000000176 L 5.204297973632812 0.21750000000000003 L 5.418797973632812 0.21750000000000003 L 5.418797973632812 0.33000000000000007 L 5.204297973632812 0.33000000000000007 M 0.759 1.404 L 0.759 1.5150000000000001 L 0.47400000000000003 1.5150000000000001 L 0.47400000000000003 2.4495 L 0.3375 2.4495 L 0.3375 1.5150000000000001 L 0.051000000000000004 1.5150000000000001 L 0.051000000000000004 1.404 L 0.759 1.404 M 1.5180234375000001 1.65225 Q 1.5930234375 1.692 1.6357734375000001 1.7715 Q 1.6785234375 1.851 1.6785234375 1.965 L 1.6785234375 2.4495 L 1.5435234375 2.4495 L 1.5435234375 1.9845 Q 1.5435234375 1.8615 1.4820234375 1.7962500000000001 Q 1.4205234375 1.7309999999999999 1.3140234375 1.7309999999999999 Q 1.2060234375 1.7309999999999999 1.1422734375 1.7985 Q 1.0785234375 1.866 1.0785234375 1.995 L 1.0785234375 2.4495 L 0.9420234375000001 2.4495 L 0.9420234375000001 1.3395 L 1.0785234375 1.3395 L 1.0785234375 1.7445 Q 1.1190234375 1.6815 1.1902734375000001 1.647 Q 1.2615234375 1.6125 1.3500234375 1.6125 Q 1.4430234375 1.6125 1.5180234375000001 1.65225 M 2.66254541015625 2.0895 L 2.00554541015625 2.0895 Q 2.01304541015625 2.211 2.08879541015625 2.27925 Q 2.16454541015625 2.3475 2.27254541015625 2.3475 Q 2.36104541015625 2.3475 2.42029541015625 2.30625 Q 2.47954541015625 2.265 2.50354541015625 2.196 L 2.65054541015625 2.196 Q 2.61754541015625 2.3145 2.51854541015625 2.38875 Q 2.41954541015625 2.463 2.27254541015625 2.463 Q 2.15554541015625 2.463 2.06329541015625 2.4105 Q 1.97104541015625 2.358 1.91854541015625 2.26125 Q 1.86604541015625 2.1645 1.86604541015625 2.037 Q 1.86604541015625 1.9095 1.91704541015625 1.8135 Q 1.9680454101562501 1.7175 2.06029541015625 1.66575 Q 2.1525454101562502 1.6139999999999999 2.27254541015625 1.6139999999999999 Q 2.38954541015625 1.6139999999999999 2.47954541015625 1.665 Q 2.56954541015625 1.716 2.61829541015625 1.80525 Q 2.66704541015625 1.8944999999999999 2.66704541015625 2.007 Q 2.66704541015625 2.046 2.66254541015625 2.0895 M 2.49154541015625 1.84425 Q 2.45704541015625 1.788 2.39779541015625 1.75875 Q 2.33854541015625 1.7295 2.26654541015625 1.7295 Q 2.16304541015625 1.7295 2.09029541015625 1.7955 Q 2.01754541015625 1.8615 2.00704541015625 1.9785 L 2.52604541015625 1.9785 Q 2.52604541015625 1.9005 2.49154541015625 1.84425 M 3.1012880859375 1.6515 Q 3.1680380859375 1.6125 3.2640380859375 1.6125 L 3.2640380859375 1.7534999999999998 L 3.2280380859375 1.7534999999999998 Q 2.9985380859374997 1.7534999999999998 2.9985380859374997 2.0025 L 2.9985380859374997 2.4495 L 2.8620380859375 2.4495 L 2.8620380859375 1.6275 L 2.9985380859374997 1.6275 L 2.9985380859374997 1.7610000000000001 Q 3.0345380859375 1.6905000000000001 3.1012880859375 1.6515 M 3.436516845703125 1.81425 Q 3.487516845703125 1.7189999999999999 3.576766845703125 1.6665 Q 3.6660168457031252 1.6139999999999999 3.775516845703125 1.6139999999999999 Q 3.883516845703125 1.6139999999999999 3.963016845703125 1.6604999999999999 Q 4.042516845703125 1.7069999999999999 4.081516845703125 1.7774999999999999 L 4.081516845703125 1.6275 L 4.219516845703125 1.6275 L 4.219516845703125 2.4495 L 4.081516845703125 2.4495 L 4.081516845703125 2.2965 Q 4.041016845703125 2.3685 3.960766845703125 2.41575 Q 3.880516845703125 2.463 3.774016845703125 2.463 Q 3.664516845703125 2.463 3.576016845703125 2.409 Q 3.487516845703125 2.355 3.436516845703125 2.2575 Q 3.3855168457031253 2.16 3.3855168457031253 2.0355 Q 3.3855168457031253 1.9095 3.436516845703125 1.81425 M 4.044016845703125 1.875 Q 4.006516845703125 1.806 3.942766845703125 1.76925 Q 3.8790168457031253 1.7325 3.802516845703125 1.7325 Q 3.726016845703125 1.7325 3.663016845703125 1.7685 Q 3.600016845703125 1.8045 3.562516845703125 1.8735 Q 3.5250168457031252 1.9425 3.5250168457031252 2.0355 Q 3.5250168457031252 2.13 3.562516845703125 2.19975 Q 3.600016845703125 2.2695 3.663016845703125 2.30625 Q 3.726016845703125 2.343 3.802516845703125 2.343 Q 3.8790168457031253 2.343 3.942766845703125 2.30625 Q 4.006516845703125 2.2695 4.044016845703125 2.19975 Q 4.081516845703125 2.13 4.081516845703125 2.037 Q 4.081516845703125 1.944 4.044016845703125 1.875 M 4.722804931640625 1.66125 Q 4.8030549316406255 1.6139999999999999 4.909554931640625 1.6139999999999999 Q 5.019054931640625 1.6139999999999999 5.1083049316406255 1.6665 Q 5.197554931640625 1.7189999999999999 5.2485549316406255 1.81425 Q 5.299554931640625 1.9095 5.299554931640625 2.0355 Q 5.299554931640625 2.16 5.2485549316406255 2.2575 Q 5.197554931640625 2.355 5.1083049316406255 2.409 Q 5.019054931640625 2.463 4.909554931640625 2.463 Q 4.8045549316406255 2.463 4.724304931640625 2.41575 Q 4.644054931640625 2.3685 4.602054931640625 2.298 L 4.602054931640625 2.8395 L 4.465554931640625 2.8395 L 4.465554931640625 1.6275 L 4.602054931640625 1.6275 L 4.602054931640625 1.779 Q 4.642554931640625 1.7085 4.722804931640625 1.66125 M 5.122554931640625 1.8735 Q 5.0850549316406255 1.8045 5.021304931640625 1.7685 Q 4.957554931640625 1.7325 4.881054931640625 1.7325 Q 4.806054931640626 1.7325 4.742304931640625 1.76925 Q 4.678554931640625 1.806 4.6403049316406255 1.87575 Q 4.602054931640625 1.9455 4.602054931640625 2.037 Q 4.602054931640625 2.13 4.6403049316406255 2.19975 Q 4.678554931640625 2.2695 4.742304931640625 2.30625 Q 4.806054931640626 2.343 4.881054931640625 2.343 Q 4.957554931640625 2.343 5.021304931640625 2.30625 Q 5.0850549316406255 2.2695 5.122554931640625 2.19975 Q 5.160054931640625 2.13 5.160054931640625 2.0355 Q 5.160054931640625 1.9425 5.122554931640625 1.8735 M 6.240093017578125 2.0895 L 5.583093017578125 2.0895 Q 5.590593017578125 2.211 5.666343017578125 2.27925 Q 5.742093017578124 2.3475 5.850093017578125 2.3475 Q 5.938593017578125 2.3475 5.997843017578125 2.30625 Q 6.057093017578125 2.265 6.081093017578125 2.196 L 6.228093017578125 2.196 Q 6.195093017578125 2.3145 6.0960930175781245 2.38875 Q 5.997093017578125 2.463 5.850093017578125 2.463 Q 5.733093017578125 2.463 5.640843017578125 2.4105 Q 5.548593017578125 2.358 5.496093017578125 2.26125 Q 5.443593017578125 2.1645 5.443593017578125 2.037 Q 5.443593017578125 1.9095 5.494593017578125 1.8135 Q 5.545593017578125 1.7175 5.637843017578125 1.66575 Q 5.730093017578125 1.6139999999999999 5.850093017578125 1.6139999999999999 Q 5.967093017578125 1.6139999999999999 6.057093017578125 1.665 Q 6.147093017578125 1.716 6.195843017578125 1.80525 Q 6.244593017578125 1.8944999999999999 6.244593017578125 2.007 Q 6.244593017578125 2.046 6.240093017578125 2.0895 M 6.069093017578125 1.84425 Q 6.034593017578125 1.788 5.975343017578125 1.75875 Q 5.916093017578125 1.7295 5.844093017578125 1.7295 Q 5.740593017578125 1.7295 5.667843017578125 1.7955 Q 5.595093017578125 1.8615 5.584593017578125 1.9785 L 6.103593017578125 1.9785 Q 6.103593017578125 1.9005 6.069093017578125 1.84425 M 7.168585693359375 1.6275 L 7.168585693359375 2.4495 L 7.032085693359375 2.4495 L 7.032085693359375 2.328 Q 6.993085693359374 2.391 6.923335693359375 2.42625 Q 6.853585693359374 2.4615 6.7695856933593745 2.4615 Q 6.6735856933593745 2.4615 6.597085693359374 2.42175 Q 6.520585693359375 2.382 6.476335693359374 2.3025 Q 6.432085693359374 2.223 6.432085693359374 2.109 L 6.432085693359374 1.6275 L 6.567085693359375 1.6275 L 6.567085693359375 2.091 Q 6.567085693359375 2.2125 6.6285856933593745 2.27775 Q 6.690085693359374 2.343 6.796585693359375 2.343 Q 6.906085693359374 2.343 6.969085693359375 2.2755 Q 7.032085693359375 2.208 7.032085693359375 2.079 L 7.032085693359375 1.6275 L 7.168585693359375 1.6275 M 7.581107666015624 1.74 L 7.581107666015624 2.2245 Q 7.581107666015624 2.2845 7.606607666015624 2.30925 Q 7.632107666015624 2.334 7.695107666015624 2.334 L 7.795607666015624 2.334 L 7.795607666015624 2.4495 L 7.672607666015624 2.4495 Q 7.558607666015624 2.4495 7.501607666015624 2.397 Q 7.444607666015624 2.3445 7.444607666015624 2.2245 L 7.444607666015624 1.74 L 7.338107666015624 1.74 L 7.338107666015624 1.6275 L 7.444607666015624 1.6275 L 7.444607666015624 1.4205 L 7.581107666015624 1.4205 L 7.581107666015624 1.6275 L 7.795607666015624 1.6275 L 7.795607666015624 1.74 L 7.581107666015624 1.74 M 8.721128173828124 2.0895 L 8.064128173828124 2.0895 Q 8.071628173828124 2.211 8.147378173828123 2.27925 Q 8.223128173828124 2.3475 8.331128173828123 2.3475 Q 8.419628173828125 2.3475 8.478878173828123 2.30625 Q 8.538128173828124 2.265 8.562128173828125 2.196 L 8.709128173828123 2.196 Q 8.676128173828124 2.3145 8.577128173828124 2.38875 Q 8.478128173828123 2.463 8.331128173828123 2.463 Q 8.214128173828124 2.463 8.121878173828124 2.4105 Q 8.029628173828124 2.358 7.977128173828124 2.26125 Q 7.924628173828124 2.1645 7.924628173828124 2.037 Q 7.924628173828124 1.9095 7.975628173828124 1.8135 Q 8.026628173828124 1.7175 8.118878173828124 1.66575 Q 8.211128173828124 1.6139999999999999 8.331128173828123 1.6139999999999999 Q 8.448128173828124 1.6139999999999999 8.538128173828124 1.665 Q 8.628128173828124 1.716 8.676878173828124 1.80525 Q 8.725628173828124 1.8944999999999999 8.725628173828124 2.007 Q 8.725628173828124 2.046 8.721128173828124 2.0895 M 8.550128173828124 1.84425 Q 8.515628173828123 1.788 8.456378173828124 1.75875 Q 8.397128173828124 1.7295 8.325128173828125 1.7295 Q 8.221628173828124 1.7295 8.148878173828123 1.7955 Q 8.076128173828124 1.8615 8.065628173828124 1.9785 L 8.584628173828124 1.9785 Q 8.584628173828124 1.9005 8.550128173828124 1.84425" fill="#390c14" fill-rule="nonzero"></path></g><g><path d=" M 3.8803060080788345 3.6822954545454545 Q 3.874851462624289 3.6822954545454545 3.8707605535333798 3.6782045454545456 Q 3.866669644442471 3.674113636363636 3.866669644442471 3.668659090909091 Q 3.866669644442471 3.66525 3.867351462624289 3.661159090909091 L 4.036442371715198 3.220022727272727 Q 4.039169644442471 3.2132045454545453 4.043942371715198 3.2091136363636363 Q 4.048715098987925 3.2050227272727274 4.05826055353338 3.2050227272727274 L 4.104624189897017 3.2050227272727274 Q 4.1141696444424705 3.2050227272727274 4.118942371715198 3.2091136363636363 Q 4.123715098987925 3.2132045454545453 4.126442371715198 3.220022727272727 L 4.294851462624289 3.661159090909091 Q 4.2962150989879255 3.66525 4.2962150989879255 3.668659090909091 Q 4.2962150989879255 3.674113636363636 4.292124189897017 3.6782045454545456 Q 4.288033280806107 3.6822954545454545 4.282578735351562 3.6822954545454545 L 4.247806008078834 3.6822954545454545 Q 4.239624189897016 3.6822954545454545 4.235874189897016 3.6782045454545456 Q 4.232124189897016 3.674113636363636 4.23076055353338 3.6707045454545453 L 4.19326055353338 3.5738863636363636 L 3.9696241898970164 3.5738863636363636 L 3.9321241898970163 3.6707045454545453 Q 3.9314423717151983 3.674113636363636 3.927351462624289 3.6782045454545456 Q 3.92326055353338 3.6822954545454545 3.9150787353515617 3.6822954545454545 L 3.8803060080788345 3.6822954545454545 M 3.9893969171697434 3.51525 L 4.1734878262606525 3.51525 L 4.081442371715198 3.2732045454545453 L 3.9893969171697434 3.51525 M 4.70597217906605 3.6891136363636363 Q 4.645290360884232 3.6891136363636363 4.603358542702414 3.6666136363636364 Q 4.5614267245205955 3.6441136363636364 4.539267633611504 3.6032045454545454 Q 4.517108542702413 3.5622954545454544 4.514381269975141 3.5070681818181817 Q 4.513699451793323 3.477068181818182 4.513699451793323 3.443318181818182 Q 4.513699451793323 3.409568181818182 4.514381269975141 3.3788863636363637 Q 4.517108542702413 3.323659090909091 4.539267633611504 3.283090909090909 Q 4.5614267245205955 3.242522727272727 4.6036994517933225 3.2203636363636363 Q 4.6459721790660495 3.1982045454545456 4.70597217906605 3.1982045454545456 Q 4.753699451793323 3.1982045454545456 4.789153997247868 3.2118409090909092 Q 4.824608542702413 3.2254772727272725 4.847449451793323 3.246272727272727 Q 4.870290360884232 3.267068181818182 4.881540360884232 3.289568181818182 Q 4.892790360884232 3.312068181818182 4.89347217906605 3.3291136363636364 Q 4.894153997247868 3.33525 4.890063088156959 3.339 Q 4.88597217906605 3.34275 4.879153997247868 3.34275 L 4.838926724520595 3.34275 Q 4.8321085427024135 3.34275 4.829040360884232 3.340022727272727 Q 4.82597217906605 3.3372954545454547 4.823244906338777 3.330477272727273 Q 4.817108542702414 3.31275 4.8031312699751405 3.2957045454545453 Q 4.789153997247868 3.2786590909090907 4.765631269975141 3.2674090909090907 Q 4.742108542702414 3.2561590909090907 4.70597217906605 3.2561590909090907 Q 4.651426724520595 3.2561590909090907 4.618358542702413 3.2854772727272725 Q 4.5852903608842315 3.3147954545454543 4.582563088156959 3.3822954545454547 Q 4.580517633611504 3.4429772727272727 4.582563088156959 3.503659090909091 Q 4.5852903608842315 3.571840909090909 4.618699451793322 3.6015 Q 4.652108542702414 3.6311590909090907 4.70597217906605 3.6311590909090907 Q 4.742108542702414 3.6311590909090907 4.770403997247868 3.617522727272727 Q 4.798699451793323 3.6038863636363634 4.8150630881569585 3.5762727272727273 Q 4.831426724520595 3.5486590909090907 4.831426724520595 3.5057045454545452 L 4.831426724520595 3.477068181818182 L 4.7291539972478684 3.477068181818182 Q 4.722335815429686 3.477068181818182 4.717903997247868 3.4726363636363637 Q 4.713472179066049 3.4682045454545456 4.713472179066049 3.4607045454545453 L 4.713472179066049 3.438886363636364 Q 4.713472179066049 3.4313863636363635 4.717903997247868 3.4269545454545454 Q 4.722335815429686 3.422522727272727 4.7291539972478684 3.422522727272727 L 4.883244906338777 3.422522727272727 Q 4.890744906338777 3.422522727272727 4.894835815429686 3.4269545454545454 Q 4.898926724520595 3.4313863636363635 4.898926724520595 3.438886363636364 L 4.898926724520595 3.5043409090909092 Q 4.898926724520595 3.56025 4.876085815429686 3.601840909090909 Q 4.8532449063387775 3.643431818181818 4.809608542702414 3.666272727272727 Q 4.76597217906605 3.6891136363636363 4.70597217906605 3.6891136363636363" fill="#a5497e" fill-rule="nonzero"></path></g><g clip-path="url(#SvgjsClipPath1002)"><g clip-path="url(#a2f8312d2-31ff-45af-bc73-e5378f99b327e4536c9b-fead-4ffa-8f46-9c93d1029e0c)"><path d=" M 5.6035304348551636 -1.0918616505640664 C 5.821743397975354 -0.9743668436731356 6.1467327522859625 -0.9360951093512018 6.394071845027108 -0.9203087470966445 C 6.6304012607715315 -0.9627746440839964 6.92882758486783 -1.125065438331954 7.06094370882848 -1.3903462269196067 C 7.185661795865406 -1.6299960214408191 7.165739523204674 -2.048946269908628 7.352787527630443 -2.4082462049127207 C 7.539952036574696 -2.767837401213024 8.136338666693359 -3.2854087245773846 8.194765682712994 -3.489175127405581 C 8.253134446473386 -3.6927085211968103 7.906067485910093 -3.654611543652602 7.7476213407721 -3.5898350313755993 C 7.589000438856384 -3.525058519098597 7.188399652049776 -3.0064386550678828 7.180419092533634 -3.1740886571660964 C 7.172438533017493 -3.3415639024865844 7.6787089180889225 -4.325735822378633 7.725834995815627 -4.587637979930255 C 7.772902821283089 -4.849540137481878 7.599019827445991 -4.926957390014374 7.404107768022564 -4.7350161958122845 C 7.209020951821412 -4.543133253869437 6.677643843016719 -3.3731948792549407 6.54826557524044 -3.410301568392036 C 6.4188290552049185 -3.4474082575291325 6.75791545625207 -4.727618158888562 6.701643773824386 -5.019170716394316 C 6.6451390823597345 -5.310548517122343 6.360576795963009 -5.392101680061016 6.2472178994782555 -5.094316130816379 C 6.133742498475017 -4.796355824794015 6.0168302141765055 -3.314826115494548 5.935859573830252 -3.2277972401871367 C 5.8551219425209675 -3.1408848693982088 5.759005714771818 -4.270279671580337 5.687937958496689 -4.510978006767903 C 5.613083805370835 -4.835384838486093 5.53875392257816 -4.966918439854324 5.420618340835569 -4.945714617490269 C 5.342968079266105 -4.9679669805206785 5.195881124680285 -4.844996461261009 5.152541443804305 -4.499327554919522 C 5.12399783677577 -4.204338114118496 5.34955058456044 -3.037836622799272 5.305803137869767 -2.885215703585471 C 5.225531524634416 -2.6052553456688567 4.961474033490844 -3.149098437951318 4.743319322629895 -3.266768001619974 C 4.588018799490966 -3.3113309799400334 4.432893033129763 -3.3557774537416107 4.288893448283765 -3.3419716683012775 C 4.207981060196753 -3.2551175497715916 4.090020235231888 -3.2338554751482946 4.1269521675912575 -3.16808867446418 C 4.090428001046581 -3.0407492357613672 4.323437038014216 -2.9739921466701396 4.4639414873057 -2.878574946031893 C 4.604678945634152 -2.783274249912131 4.741863016148847 -2.578575810936063 4.846134560191864 -2.3559939283727287 C 4.95739637534391 -2.158693526320384 5.095512482006476 -1.7610053524758733 5.206774297158521 -1.5637049504235279 C 5.3110458412015396 -1.3411230678601935 5.411064970319897 -1.2021914295682414 5.6035304348551636 -1.0918616505640664" fill="#390c14" transform="matrix(1,0,0,1,0,0)" fill-rule="nonzero"></path></g><g clip-path="url(#a2f8312d2-31ff-45af-bc73-e5378f99b327e4536c9b-fead-4ffa-8f46-9c93d1029e0c)"><path d=" M 1.3050962253947116 -0.280174670287308 C 1.0981842005674514 -0.38974716992133907 0.8081462018019875 -0.6353969471444678 0.6834281147650607 -0.8400953861205354 C 0.5588847845058597 -1.0446773205781197 0.5716420292798376 -1.3305794089374077 0.6395059112966615 -1.6027922163748478 C 0.7074280455727272 -1.8751797805900132 1.1331355561125969 -2.1737226092047957 1.269737104034873 -2.486770250370814 C 1.4062221474386654 -2.799643134759106 1.4318531415051052 -3.3717385727738924 1.54125088436141 -3.5757962368982987 C 1.6091147663782337 -3.847950792076497 1.85680337267483 -3.9017758796160207 1.9398128420945502 -3.765523845249196 C 2.022997068291996 -3.6289805495861613 1.751541540224701 -2.540187572095644 1.8753275911137572 -2.5671583681246473 C 1.9992301465212972 -2.5940126596351676 2.4905297009675564 -3.859542991665636 2.6549758288074647 -4.049853122608953 C 2.8194219566473735 -4.239988496774543 3.081673627754447 -4.116843220737149 3.068916382980469 -3.830882880118617 C 3.0010525009636453 -3.55872832494042 2.3995979242909367 -2.3206348070128895 2.4547045615337826 -2.3068872738317996 C 2.509752946517386 -2.293197992909951 3.304663276132474 -3.3674279055899907 3.5243907979929534 -3.543990503352217 C 3.744176572112676 -3.720553101114442 3.9926224577794165 -3.5428254581673784 3.869710190778989 -3.284360183911029 C 3.7465066624823518 -3.025953161913922 2.8000239543198173 -2.04748996342758 2.8279267864966915 -1.9247524532048779 C 2.8558878709328077 -1.802189699759901 3.666060292469276 -2.467547004820984 3.9271469183915113 -2.576012711529418 C 4.1884083010914726 -2.68442016597861 4.367417493741858 -2.6975851765672814 4.40895135458134 -2.6294300332542484 C 4.4506599721985465 -2.5610418809042477 4.465048280231297 -2.38412976958657 4.231689729708211 -2.1531595616924015 C 3.998331179185124 -1.9220145970205085 3.0364698745827257 -1.3523075016346393 2.8855382708869395 -1.216346728564024 C 2.7759657712529093 -1.0123473166988592 3.340197154270038 -1.1607740732472438 3.5469926745788145 -1.051434582650181 C 3.698914566681713 -0.955784372974966 3.8507782065253693 -0.8601341632997519 3.8787392909614855 -0.7373966530770506 C 3.9067003753976017 -0.6148338996320737 3.9347779643522025 -0.4920963894093724 3.8659237939282654 -0.4514363124585188 C 3.797302632541297 -0.41077623550766784 3.5903323554547946 -0.5201739783639718 3.4248376869485315 -0.5614165779072433 C 3.2595760274792362 -0.6026591774505148 3.0254601975860047 -0.6032417000429335 2.7777133390301665 -0.5492418557256853 C 2.5435975091369354 -0.549824378318104 2.131404522741188 -0.305456150798296 1.8972886928479566 -0.3060969256499577 C 1.6496000865513605 -0.25227183811043385 1.5256392788845785 -0.22518453756294665 1.3050962253947116 -0.280174670287308" fill="#a5497e" transform="matrix(1,0,0,1,0,0)" fill-rule="nonzero"></path></g><g clip-path="url(#a2f8312d2-31ff-45af-bc73-e5378f99b327e4536c9b-fead-4ffa-8f46-9c93d1029e0c)"><path d=" M 4.898212079954131 -3.840785764189743 C 4.751707647960731 -3.7094269195992386 4.318136082423203 -3.574922453009671 4.044991238837893 -3.652863975875345 C 3.7717881429933406 -3.730863751000261 3.412662964766973 -4.109153922517217 3.253517792518078 -4.245522461402525 C 3.094372620269183 -4.381832748028592 3.1941587403505727 -4.3592308714427315 3.0555183633548295 -4.44282286345487 C 2.9168779863590863 -4.526356603207768 2.4785879878229644 -4.67781247723673 2.3663941365230485 -4.771423857838478 C 2.2540837807046485 -4.865093490699467 2.2662002506269654 -4.9908018661435065 2.4189376743592503 -4.9882970189961044 C 2.571675098091535 -4.98573391958946 3.297498248245719 -4.640764040358876 3.301401149614927 -4.748355963178682 C 3.2972069869495098 -4.837481919818803 2.4263939635422145 -5.399965735058674 2.3017923810237715 -5.564586619676309 C 2.203753828719639 -5.739343397402035 2.3419281876414466 -5.85241103259058 2.5681799625370205 -5.81734317252695 C 2.751674579149033 -5.735615252810552 3.5452451068015574 -5.098393788963312 3.5614974871300498 -5.134859703248747 C 3.5776916151993 -5.1712673652749395 2.9407031603890275 -5.913517652535342 2.832353958199077 -6.114546199179169 C 2.734315405894945 -6.289302976904896 2.897013965957596 -6.457127735780835 3.074508599867692 -6.312429123823933 C 3.241750836151212 -6.194351794340585 3.832079231308716 -5.298257290422301 3.921729458282014 -5.301985435013783 C 4.011263180736828 -5.305771831864508 3.627089531036439 -6.0227406386139215 3.6266817652217456 -6.219516770333089 C 3.5814780120500247 -6.414428829756516 3.601633293747725 -6.558253657824789 3.654468092880136 -6.578350687263248 C 3.7074193965310314 -6.598447716701706 3.833768546826732 -6.585806976446212 3.9869719886329524 -6.386700754357368 C 4.113728904743345 -6.177458639160431 4.375864071331935 -5.383713354730181 4.445359016607532 -5.243616671253391 C 4.594193538970609 -5.133519901286183 4.546659695429212 -5.569712818489597 4.693047622904129 -5.701129915339343 C 4.778445434952767 -5.794042268830188 4.863843247001405 -5.8871293790987576 4.979881747411287 -5.90093516453909 C 5.053337846315334 -5.868255647104379 5.142871568770149 -5.872042043955103 5.163376364023301 -5.8192654970819335 C 5.175725842982585 -5.7482559930660475 5.0740756506054545 -5.618761220771284 5.02543501413846 -5.509479982433463 C 4.9318818857959545 -5.398218167281417 4.9220372539840715 -5.227830308998834 4.922503272058007 -5.03117068179815 C 4.922736281094974 -4.834452802338223 5.006736038921808 -4.578667132007002 5.007143804736501 -4.381891000287833 C 5.007609822810436 -4.185289625346392 5.003823425959712 -3.9662611305968145 4.898212079954131 -3.840785764189743" fill="#c771a3" transform="matrix(1,0,0,1,0,0)" fill-rule="nonzero"></path></g></g></g><defs><clipPath id="SvgjsClipPath1002"><path d=" M 0.5888264457562009 -6.585298544359397 h 7.612467958096971 v 6.335298544359397 h -7.612467958096971 Z"></path></clipPath><clipPath id="a2f8312d2-31ff-45af-bc73-e5378f99b327e4536c9b-fead-4ffa-8f46-9c93d1029e0c"><path d=" M 0.5888264457562009 -0.25 L 8.201289935748088 -0.25 L 8.201289935748088 -6.585282706113035 L 0.5888264457562009 -6.585282706113035 Z"></path></clipPath></defs></svg>